<svg width="50" height="50" viewBox="0 0 13.229 13.229" xmlns="http://www.w3.org/2000/svg">
    <g style="display:inline">
        <path d="m1.803 5.556-.745.882v.882l.745.882H8.78l.744-.882v-.882l-.744-.882Z" style="fill:#181818;stroke-width:.730767" transform="matrix(1.125 0 0 1.11903 .661 .082)"/>
        <path d="m5.274 3.473-.742 1.213v1.212l.742 1.212h2.18l.714-1.212V4.686l-.713-1.213Z" style="fill:#181818;stroke-width:.478962" transform="matrix(1.125 0 0 1.11903 .661 .082)"/>
        <path d="m3.255 4.218-.54.882v.882l.54.881H4.84l.52-.881V5.1l-.52-.882Z" style="fill:#181818;stroke-width:.348459" transform="matrix(1.125 0 0 1.11903 .661 .082)"/>
    </g>
    <path style="fill:#181818;stroke-width:0" d="M2.646 9.871h7.938v.529H2.646zM2.646 10.93h7.938v.529H2.646z"/>
</svg>
