<svg width="50" height="50" viewBox="0 0 13.229 13.229" xmlns="http://www.w3.org/2000/svg">
    <g style="display:inline">
        <path d="m1.803 5.556-.745.882v.882l.745.882H8.78l.744-.882v-.882l-.744-.882Z" style="fill:#181818;stroke-width:.730767" transform="matrix(1.5625 0 0 1.55421 -1.654 -2.458)"/>
        <path d="m5.274 3.473-.742 1.213v1.212l.742 1.212h2.18l.714-1.212V4.686l-.713-1.213Z" style="fill:#181818;stroke-width:.478962" transform="matrix(1.5625 0 0 1.55421 -1.654 -2.458)"/>
        <path d="m3.255 4.218-.54.882v.882l.54.881H4.84l.52-.881V5.1l-.52-.882Z" style="fill:#181818;stroke-width:.348459" transform="matrix(1.5625 0 0 1.55421 -1.654 -2.458)"/>
    </g>
    <path style="fill:#181818;stroke:#fff;stroke-width:.367476;stroke-dasharray:none;stroke-opacity:1" d="m5.38 6.618-1.242 3.858H5.46l.001 2.988 3.668-3.85H7.763l.964-2.996zm.081 6.846-.003.003.003.006z"/>
</svg>
